<svg xmlns="http://www.w3.org/2000/svg" enable-background="new 0 0 512 512" viewBox="0 0 512 512" id="birthday"><path fill="#212121" d="M422.731,512H89.269c-33.267,0-60.332-27.064-60.332-60.332V118.205
														c0-33.267,27.064-60.331,60.332-60.331h333.463c33.267,0,60.332,27.064,60.332,60.331v333.463
														C483.063,484.936,455.999,512,422.731,512z M89.269,77.874c-22.239,0-40.332,18.093-40.332,40.331v333.463
														C48.937,473.907,67.03,492,89.269,492h333.463c22.239,0,40.332-18.093,40.332-40.332V118.205
														c0-22.238-18.093-40.331-40.332-40.331H89.269z"></path><path fill="#212121" d="M473.063 191.298H38.937c-5.523 0-10-4.478-10-10s4.477-10 10-10h434.126c5.523 0 10 4.478 10 10S478.586 191.298 473.063 191.298zM124.092 125.962c-5.523 0-10-4.478-10-10V10c0-5.522 4.477-10 10-10s10 4.478 10 10v105.962C134.092 121.484 129.615 125.962 124.092 125.962zM250.366 125.962c-5.523 0-10-4.478-10-10V10c0-5.522 4.477-10 10-10s10 4.478 10 10v105.962C260.366 121.484 255.889 125.962 250.366 125.962zM383.46 125.962c-5.523 0-10-4.478-10-10V10c0-5.522 4.477-10 10-10 5.523 0 10 4.478 10 10v105.962C393.46 121.484 388.983 125.962 383.46 125.962z"></path><path fill="#212121" d="M422.731,512H89.269c-33.267,0-60.332-27.064-60.332-60.332V118.205
													c0-33.267,27.064-60.331,60.332-60.331h333.463c33.267,0,60.332,27.064,60.332,60.331v333.463
													C483.063,484.936,455.999,512,422.731,512z M89.269,77.874c-22.239,0-40.332,18.093-40.332,40.331v333.463
													C48.937,473.907,67.03,492,89.269,492h333.463c22.239,0,40.332-18.093,40.332-40.332V118.205
													c0-22.238-18.093-40.331-40.332-40.331H89.269z"></path><path fill="#212121" d="M374.6,458.6H137.4c-5.523,0-10-4.478-10-10v-134c0-5.522,4.477-10,10-10h237.2
					c5.523,0,10,4.478,10,10v134C384.6,454.122,380.123,458.6,374.6,458.6z M147.4,438.6h217.2v-114H147.4V438.6z"></path><path fill="#212121" d="M256,324.6c-5.523,0-10-4.478-10-10V266.2c0-5.522,4.477-10,10-10s10,4.478,10,10V314.6
						C266,320.122,261.523,324.6,256,324.6z"></path><path fill="#212121" d="M256 276.2c-15.219 0-27.6-12.382-27.6-27.601 0-12.327 14.186-28.876 20.286-35.418 1.891-2.029 4.541-3.182 7.314-3.182s5.423 1.152 7.314 3.182c6.1 6.542 20.286 23.091 20.286 35.418C283.6 263.818 271.219 276.2 256 276.2zM255.994 235.571c-4.251 5.631-7.389 10.894-7.597 13.125.003 4.095 3.412 7.504 7.603 7.504 4.17 0 7.566-3.375 7.6-7.537C263.366 246.447 260.203 241.162 255.994 235.571zM331.4 324.6c-5.523 0-10-4.478-10-10V266.2c0-5.522 4.477-10 10-10s10 4.478 10 10V314.6C341.4 320.122 336.923 324.6 331.4 324.6z"></path><path fill="#212121" d="M331.4 276.2c-15.219 0-27.6-12.382-27.6-27.601 0-12.327 14.186-28.876 20.286-35.418 1.891-2.029 4.541-3.182 7.314-3.182s5.423 1.152 7.314 3.182c6.1 6.542 20.286 23.091 20.286 35.418C359 263.818 346.619 276.2 331.4 276.2zM331.394 235.571c-4.251 5.631-7.389 10.894-7.597 13.125.003 4.095 3.412 7.504 7.603 7.504 4.17 0 7.566-3.375 7.6-7.537C338.766 246.447 335.603 241.162 331.394 235.571zM180.6 324.6c-5.523 0-10-4.478-10-10V266.2c0-5.522 4.477-10 10-10s10 4.478 10 10V314.6C190.6 320.122 186.123 324.6 180.6 324.6z"></path><path fill="#212121" d="M180.6 276.2c-15.219 0-27.6-12.382-27.6-27.601 0-12.327 14.186-28.876 20.286-35.418 1.891-2.029 4.541-3.182 7.314-3.182s5.423 1.152 7.314 3.182c6.1 6.542 20.286 23.091 20.286 35.418C208.2 263.818 195.819 276.2 180.6 276.2zM173 248.663c.034 4.162 3.43 7.537 7.6 7.537 4.191 0 7.6-3.409 7.6-7.601-.203-2.132-3.375-7.419-7.604-13.03C176.365 241.173 173.237 246.412 173 248.663zM374.6 357H137.4c-5.523 0-10-4.478-10-10s4.477-10 10-10h237.2c5.523 0 10 4.478 10 10S380.123 357 374.6 357zM374.6 427.4H137.4c-5.523 0-10-4.478-10-10s4.477-10 10-10h237.2c5.523 0 10 4.478 10 10S380.123 427.4 374.6 427.4zM176.07 391.6c-11.753.264-13.537-17.765-1.959-19.81C188.265 369.271 190.433 391.322 176.07 391.6zM227.22 391.6c-11.756.262-13.527-17.775-1.949-19.81C239.427 369.277 241.577 391.322 227.22 391.6zM278.38 391.6c-11.753.266-13.539-17.764-1.959-19.81C290.562 369.251 292.751 391.326 278.38 391.6zM329.53 391.6c-11.753.262-13.529-17.774-1.949-19.81C341.726 369.256 343.895 391.323 329.53 391.6z"></path></svg>