<svg xmlns="http://www.w3.org/2000/svg" width="48" height="48" viewBox="0 0 48 48" id="gym"><path fill-rule="evenodd" d="M39 8H9C8.44771 8 8 8.44772 8 9V39C8 39.5523 8.44772 40 9 40H39C39.5523 40 40 39.5523 40 39V9C40 8.44771 39.5523 8 39 8ZM9 6C7.34315 6 6 7.34315 6 9V39C6 40.6569 7.34315 42 9 42H39C40.6569 42 42 40.6569 42 39V9C42 7.34315 40.6569 6 39 6H9Z" clip-rule="evenodd"></path><path d="M29 16H32V32H29V16Z"></path><path fill-rule="evenodd" d="M31 17H30V31H31V17ZM29 16V32H32V16H29Z" clip-rule="evenodd"></path><path d="M34 19H37V29H34V19Z"></path><path fill-rule="evenodd" d="M36 20H35V28H36V20ZM34 19V29H37V19H34Z" clip-rule="evenodd"></path><path fill="#333" d="M19 32H16L16 16H19L19 32Z"></path><path fill-rule="evenodd" d="M17 31H18L18 17H17L17 31ZM19 32L19 16H16L16 32H19Z" clip-rule="evenodd"></path><path d="M14 29H11L11 19H14L14 29Z"></path><path fill-rule="evenodd" d="M12 28H13L13 20H12L12 28zM14 29L14 19H11L11 29H14zM38 25H34V23H38V25z" clip-rule="evenodd"></path><path fill-rule="evenodd" d="M13.5 25H10V23H13.5V25zM27 25H21V23H27V25z" clip-rule="evenodd"></path></svg>