<svg xmlns="http://www.w3.org/2000/svg" data-name="Layer 1" viewBox="0 0 512 512" id="music"><path d="M95.163 362.783c-41.92 0-76.023-31.208-76.023-69.568s34.103-69.568 76.023-69.568a82.635 82.635 0 0 1 17.086 1.774V48.805a25.003 25.003 0 0 1 19.664-24.284L240.267 1.17a66.076 66.076 0 0 1 80.14 63.447 7.5 7.5 0 0 1-5.803 7.41l-143.417 33.31V248.45c0 4.767.17 9.614.35 14.746.67 19.148 1.364 38.947-6.697 56.918-11.448 25.522-39.45 42.67-69.677 42.67Zm0-124.136c-33.648 0-61.023 24.48-61.023 54.568s27.375 54.568 61.023 54.568c24.419 0 46.92-13.587 55.991-33.809 6.634-14.79 6.002-32.819 5.392-50.254-.177-5.035-.36-10.242-.36-15.271V99.379a7.5 7.5 0 0 1 5.804-7.305l142.986-33.21a50.586 50.586 0 0 0-18.74-33.027 51.174 51.174 0 0 0-42.81-10.004l-1.58-7.332 1.58 7.332-108.353 23.35a9.924 9.924 0 0 0-7.824 9.622V235.28a7.5 7.5 0 0 1-9.968 7.083 67.04 67.04 0 0 0-22.118-3.716Z"></path><path d="M217.207 511.657c-41.92 0-76.024-31.208-76.024-69.568s34.103-69.568 76.023-69.568a82.74 82.74 0 0 1 17.087 1.775V180.333a25.003 25.003 0 0 1 19.663-24.284l211.04-45.48a22.82 22.82 0 0 1 27.668 22.248l-.002 189.296q-.004 37.874.002 75.748c.001 2.945.05 5.925.099 8.808.303 18.209.617 37.037-11.35 55.112a78.445 78.445 0 0 1-64.772 34.613h-.001c-41.92 0-76.023-31.208-76.023-69.568s34.104-69.568 76.024-69.568a82.74 82.74 0 0 1 17.086 1.775v-154.8L293.23 236.866v160.457c0 4.767.17 9.614.35 14.746.671 19.148 1.365 38.948-6.697 56.919-11.448 25.522-39.45 42.67-69.676 42.67Zm-.001-124.136c-33.648 0-61.023 24.48-61.023 54.568s27.375 54.568 61.024 54.568c24.418 0 46.919-13.587 55.99-33.81 6.635-14.79 6.003-32.818 5.393-50.254-.177-5.035-.36-10.242-.36-15.27V234.943a12.54 12.54 0 0 1 9.754-12.26l145.27-33.74a12.607 12.607 0 0 1 15.474 12.26v163.51a10.451 10.451 0 0 1-4.196 8.416 10.668 10.668 0 0 1-9.313 1.72 67.42 67.42 0 0 0-18.578-2.592c-33.649 0-61.024 24.48-61.024 54.568 0 30.089 27.375 54.568 61.023 54.568 20.529 0 41.045-10.949 52.265-27.894 9.399-14.196 9.149-29.203 8.86-46.581-.05-2.943-.1-5.986-.1-9.053q-.011-37.877-.003-75.755l.002-189.294a7.704 7.704 0 0 0-2.885-6.016 7.86 7.86 0 0 0-6.624-1.57l-211.039 45.48a9.923 9.923 0 0 0-7.823 9.622v199.644a10.453 10.453 0 0 1-4.195 8.416 10.67 10.67 0 0 1-9.314 1.72 67.419 67.419 0 0 0-18.578-2.592Z"></path></svg>