<svg xmlns="http://www.w3.org/2000/svg" viewBox="0 0 128 128" id="photographer"><circle cx="34.5" cy="45.5" r="1.5"></circle><circle cx="55.5" cy="45.5" r="1.5"></circle><path d="M79.476 81.597 58 75.64v-7.207c3.873-3.065 6.641-7.445 7.61-12.464C70.288 55.653 74 51.757 74 47V23.28c0-4.555-2.943-8.627-7.222-10.084A18.525 18.525 0 0 0 49.351 1H45a28.868 28.868 0 0 0-15.879 4.736c-6.111 4.011-13.56 4.315-19.436.792C6.961 4.895 5.809 3.41 5.8 3.399L4 1.004V4c0 3.321.866 5.789 1.711 7.406-1.661-.791-2.985-2.095-3.005-2.114L1 7.595V10c0 8.979 4.199 16.028 12.145 20.387.944.518 1.9.976 2.855 1.385V47c0 4.727 3.665 8.606 8.302 8.965A20.387 20.387 0 0 0 32 68.762v6.878l-21.476 5.957C4.917 83.153 1 88.304 1 94.124V127h88V94.124c0-5.82-3.917-10.971-9.524-12.527zM52.573 102.91l-.126-.252A2.986 2.986 0 0 0 49.763 101h-3.058L59.51 78.135l5.915 1.641-12.852 23.134zm-15.02-.252-.126.252-12.852-23.134 5.915-1.641L43.294 101h-3.058a2.985 2.985 0 0 0-2.683 1.658zM32.886 77.47C34.418 79.251 38.42 83 45 83s10.582-3.749 12.114-5.53l.413.115L45 99.954l-12.527-22.37.413-.114zm33.015-23.535C65.96 53.297 66 52.653 66 52V40.08c3.386.488 6 3.401 6 6.92 0 3.553-2.664 6.49-6.099 6.935zM3.089 12.174C4.356 13.053 6.151 14 8 14l2.376-.004-1.665-1.699c-.022-.023-1.88-1.962-2.507-5.753a21.778 21.778 0 0 0 2.453 1.699c6.54 3.923 14.803 3.603 21.562-.835A26.864 26.864 0 0 1 45 3h4.351a16.53 16.53 0 0 1 15.701 11.316l.166.5.508.146C69.42 16.017 72 19.438 72 23.28v18.075a8.994 8.994 0 0 0-6.048-3.304C65.463 31.326 59.848 26 53 26l-.646.013-.269.581C52.057 26.658 48.937 33 32 33c-1.146 0-27.198-.243-28.911-20.826zM18 32.55a41.062 41.062 0 0 0 6 1.64v3.869a8.991 8.991 0 0 0-6 3.296V32.55zM18 47c0-3.519 2.614-6.432 6-6.92V52.6c0 .449.039.889.067 1.331C20.648 53.472 18 50.542 18 47zm8 5.6V34.531c2.767.407 4.949.469 6 .469 15.515 0 20.343-5.16 21.564-6.985C59.368 28.31 64 33.124 64 39v13c0 10.477-8.567 19-19.098 19H44.4C34.254 71 26 62.746 26 52.6zM44.4 73h.502c4.074 0 7.869-1.175 11.098-3.174v5.847C55.207 76.708 51.524 81 45 81c-6.584 0-10.211-4.277-11-5.325v-5.557A20.244 20.244 0 0 0 44.4 73zM11.06 83.524l.426-.118 3.44 8.601A28.886 28.886 0 0 1 17 102.777V116H3V94.124c0-4.925 3.314-9.283 8.06-10.6zM3 118h14v7H3v-7zm16 7v-22.223c0-3.96-.746-7.834-2.217-11.513l-3.359-8.396 9.168-2.543L36.3 105H30c-2.757 0-5 2.243-5 5v15h-6zm18-8c0-4.411 3.589-8 8-8s8 3.589 8 8-3.589 8-8 8-8-3.589-8-8zm13.974 8c2.438-1.825 4.026-4.727 4.026-8 0-5.514-4.486-10-10-10s-10 4.486-10 10c0 3.273 1.588 6.175 4.026 8H27v-15c0-1.654 1.346-3 3-3h7.618l1.724-3.447a.994.994 0 0 1 .895-.553h9.527c.382 0 .725.212.895.553L52.382 107H60c1.654 0 3 1.346 3 3v15H50.974zM60 105h-6.3l13.708-24.675 9.168 2.543-3.359 8.396A30.877 30.877 0 0 0 71 102.777V125h-6v-15c0-2.757-2.243-5-5-5zm13 20v-7h14v7H73zm14-9H73v-13.223c0-3.705.698-7.328 2.074-10.771l3.44-8.601.426.118c4.745 1.316 8.06 5.675 8.06 10.6V116z"></path><path d="M40 42v10c0 2.757 2.243 5 5 5s5-2.243 5-5V42a1 1 0 0 1 1-1h10v-2H51c-1.654 0-3 1.346-3 3v10c0 1.654-1.346 3-3 3s-3-1.346-3-3V42c0-1.654-1.346-3-3-3H29v2h10a1 1 0 0 1 1 1zm14.75 18.58-1.5-1.322C51.155 61.636 48.148 63 45 63s-6.155-1.364-8.25-3.742l-1.5 1.322C37.724 63.389 41.277 65 45 65s7.276-1.611 9.75-4.42zM45 111c-3.309 0-6 2.691-6 6s2.691 6 6 6 6-2.691 6-6-2.691-6-6-6zm0 10c-2.206 0-4-1.794-4-4s1.794-4 4-4 4 1.794 4 4-1.794 4-4 4zm-13-12c-1.654 0-3 1.346-3 3s1.346 3 3 3 3-1.346 3-3-1.346-3-3-3zm0 4a1 1 0 1 1 0-2 1 1 0 0 1 0 2zM29 121h2v2h-2zM29 117h2v2h-2zM59 121h2v2h-2zM59 117h2v2h-2zM116 70h-10v8h10v-8zm-2 6h-6v-4h6v4z"></path><path d="m124.883 20.265-.287-.265H87.404l-.287.265C85.752 21.525 85 23.207 85 25s.752 3.475 2.117 4.735l.287.265H88v5.212L91.461 43H90v8h2v8h-2v8h2v3.111a7.042 7.042 0 0 0-2.354-1.588l-4.699-4.028-1.678-14.275A3.649 3.649 0 0 0 79.646 47 3.65 3.65 0 0 0 76 50.646v20.768l4.022 4.022C80.249 79.092 83.288 82 87 82c1.958 0 3.728-.81 5-2.111V88h2v3c0 1.654 1.346 3 3 3h18c1.654 0 3-1.346 3-3v-3h2V67h2v-8h-2v-8h2v-8h-1.461L124 35.212V30h.596l.287-.265C126.248 28.475 127 26.793 127 25s-.752-3.475-2.117-4.735zM110 49v-4h4v4h-4zm-2 0h-4v-4h4v4zm-6 0h-4v-4h4v4zm-6 0h-4v-4h4v4zm-4 12h4v4h-4v-4zm18 4v-4h4v4h-4zm-2 0h-4v-4h4v4zm-6 0h-4v-4h4v4zM78 50.646a1.647 1.647 0 0 1 3.282-.192l1.771 15.051 2.996 2.568a7.015 7.015 0 0 0-5.728 4.834L78 70.586v-19.94zM87 80c-2.757 0-5-2.243-5-5s2.243-5 5-5 5 2.243 5 5-2.243 5-5 5zm29 11a1 1 0 0 1-1 1H97a1 1 0 0 1-1-1v-3h20v3zm-22-5v-3h24v3H94zm24-5H94V67h24v14zm2-16h-4v-4h4v4zm-2-6H94v-8h24v8zm2-10h-4v-4h4v4zm-26.35-6-3.111-7h30.923l-3.111 7H93.65zM122 34H90v-4h32v4zm1.793-6H88.207C87.426 27.161 87 26.108 87 25s.426-2.161 1.207-3h35.586c.781.839 1.207 1.892 1.207 3s-.426 2.161-1.207 3z"></path><path d="M100 78c2.206 0 4-1.794 4-4s-1.794-4-4-4-4 1.794-4 4 1.794 4 4 4zm0-6c1.103 0 2 .897 2 2s-.897 2-2 2-2-.897-2-2 .897-2 2-2zm-13 0c-1.654 0-3 1.346-3 3s1.346 3 3 3 3-1.346 3-3-1.346-3-3-3zm0 4a1 1 0 1 1 0-2 1 1 0 0 1 0 2zM95 38h2v2h-2zM99 38h2v2h-2zM103 38h2v2h-2zM107 38h2v2h-2zM111 38h2v2h-2zM115 38h2v2h-2z"></path></svg>