<svg xmlns="http://www.w3.org/2000/svg" viewBox="0 0 24 24" id="traveling"><path d="M4.9 20.9c.4 0 .8-.1 1.3-.2.5-.2.8-.7.7-1.3-.2-.5-.7-.8-1.2-.7-.4.1-.6.1-.7.1h-.1c-.1-.1-.1-.9.7-2.3C6.9 18.6 9.3 20 12 20c4.4 0 8-3.6 8-8 0-2.7-1.4-5.1-3.4-6.6 1.5-.8 2.2-.8 2.3-.7 0 0 .1.2-.1.9-.2.5.2 1.1.7 1.2h.3c.4 0 .8-.3 1-.7.5-1.6 0-2.4-.4-2.9-1.3-1.3-3.8-.2-5.9 1.1-.9-.2-1.7-.3-2.5-.3-4.4 0-8 3.6-8 8 0 .8.1 1.6.4 2.4-1.3 2-2.4 4.5-1.1 5.9.3.3.8.6 1.6.6zM12 6c3.3 0 6 2.7 6 6s-2.7 6-6 6-6-2.7-6-6 2.7-6 6-6z"></path><path d="M11 16c0 .6.4 1 1 1s1-.4 1-1v-.6l1-1v.6c0 .6.4 1 1 1s1-.4 1-1v-2.6l.7-.7c.4-.4.4-1 0-1.4s-1-.4-1.4 0l-.7.7H12c-.6 0-1 .4-1 1s.4 1 1 1h.6l-1 1H11c-.6 0-1 .4-1 1s.4 1 1 1z"></path></svg>