<svg xmlns="http://www.w3.org/2000/svg" width="24" height="24" fill="none" viewBox="0 0 24 24" id="video-frame-play-horizontal"><path fill="#111" fill-rule="evenodd" d="M22.25 17C22.25 17.4142 21.9142 17.75 21.5 17.75H2.5C2.08579 17.75 1.75 17.4142 1.75 17 1.75 16.5858 2.08579 16.25 2.5 16.25H21.5C21.9142 16.25 22.25 16.5858 22.25 17zM22.25 7C22.25 7.41421 21.9142 7.75 21.5 7.75L2.5 7.75C2.08579 7.75 1.75 7.41421 1.75 7 1.75 6.58579 2.08579 6.25 2.5 6.25L21.5 6.25C21.9142 6.25 22.25 6.58579 22.25 7z" clip-rule="evenodd"></path><path fill="#111" fill-rule="evenodd" d="M12 1.25C12.4142 1.25 12.75 1.58579 12.75 2V7C12.75 7.41421 12.4142 7.75 12 7.75 11.5858 7.75 11.25 7.41421 11.25 7V2C11.25 1.58579 11.5858 1.25 12 1.25zM12 16.25C12.4142 16.25 12.75 16.5858 12.75 17V22C12.75 22.4142 12.4142 22.75 12 22.75 11.5858 22.75 11.25 22.4142 11.25 22V17C11.25 16.5858 11.5858 16.25 12 16.25zM17 1.75C17.4142 1.75 17.75 2.08579 17.75 2.5V7C17.75 7.41421 17.4142 7.75 17 7.75 16.5858 7.75 16.25 7.41421 16.25 7V2.5C16.25 2.08579 16.5858 1.75 17 1.75zM17 16.25C17.4142 16.25 17.75 16.5858 17.75 17V21.5C17.75 21.9142 17.4142 22.25 17 22.25 16.5858 22.25 16.25 21.9142 16.25 21.5V17C16.25 16.5858 16.5858 16.25 17 16.25zM7 1.75C7.41421 1.75 7.75 2.08579 7.75 2.5V7C7.75 7.41421 7.41421 7.75 7 7.75 6.58579 7.75 6.25 7.41421 6.25 7V2.5C6.25 2.08579 6.58579 1.75 7 1.75zM7 16.25C7.41421 16.25 7.75 16.5858 7.75 17L7.75 21.5C7.75 21.9142 7.41421 22.25 7 22.25 6.58579 22.25 6.25 21.9142 6.25 21.5L6.25 17C6.25 16.5858 6.58579 16.25 7 16.25zM12.7793 9.74812C12.796 9.75934 12.8127 9.77059 12.8295 9.78187 12.845 9.79228 12.8605 9.80266 12.8759 9.813 13.3656 10.1421 13.8034 10.4362 14.111 10.7196 14.445 11.0273 14.75 11.4337 14.75 12 14.75 12.5663 14.445 12.9727 14.111 13.2804 13.8034 13.5638 13.3656 13.8579 12.8759 14.187 12.8605 14.1973 12.845 14.2077 12.8295 14.2181 12.8127 14.2294 12.796 14.2407 12.7793 14.2519 12.2858 14.5837 11.8414 14.8824 11.4681 15.0551 11.0758 15.2365 10.5194 15.3914 9.98642 15.0386 9.49674 14.7146 9.36158 14.1731 9.3061 13.7395 9.24993 13.3004 9.24996 12.7235 9.25 12.0514 9.25 12.0343 9.25 12.0172 9.25 12 9.25 11.9828 9.25 11.9657 9.25 11.9486 9.24996 11.2765 9.24993 10.6996 9.3061 10.2605 9.36158 9.82686 9.49674 9.28543 9.98642 8.96138 10.5194 8.60865 11.0758 8.76347 11.4681 8.94491 11.8414 9.1176 12.2858 9.41635 12.7793 9.74812zM10.8193 10.2977C10.8255 10.3004 10.8318 10.3033 10.8384 10.3063 11.0893 10.4224 11.4327 10.6504 11.9928 11.0268 12.5436 11.397 12.8823 11.6272 13.0946 11.8228 13.1937 11.9141 13.232 11.9689 13.2457 11.9934 13.2472 11.9961 13.2483 11.9983 13.2491 12 13.2483 12.0017 13.2472 12.0039 13.2457 12.0066 13.232 12.0312 13.1937 12.0859 13.0946 12.1772 12.8823 12.3728 12.5436 12.603 11.9928 12.9732 11.4327 13.3496 11.0893 13.5776 10.8384 13.6937 10.8318 13.6967 10.8255 13.6996 10.8193 13.7023 10.8109 13.663 10.8021 13.6127 10.794 13.5491 10.7515 13.2171 10.75 12.738 10.75 12 10.75 11.262 10.7515 10.7829 10.794 10.4509 10.8021 10.3873 10.8109 10.337 10.8193 10.2977z" clip-rule="evenodd"></path><path fill="#111" fill-rule="evenodd" d="M11.9426 1.25H12.0574C14.3658 1.24999 16.1748 1.24998 17.5863 1.43975C19.031 1.63399 20.1711 2.03933 21.0659 2.93414C22.0641 3.93234 22.4532 5.23569 22.6195 6.92658C22.6601 7.33881 22.3588 7.70585 21.9466 7.7464C21.5343 7.78695 21.1673 7.48564 21.1267 7.07342C20.9734 5.51402 20.6399 4.62954 20.0052 3.9948C19.4355 3.42514 18.6648 3.09825 17.3864 2.92637C16.0864 2.75159 14.3782 2.75 12 2.75C9.62177 2.75 7.91356 2.75159 6.61358 2.92637C5.33517 3.09825 4.56445 3.42514 3.9948 3.9948C3.42514 4.56445 3.09825 5.33517 2.92637 6.61358C2.75159 7.91356 2.75 9.62178 2.75 12C2.75 12.4142 2.41421 12.75 2 12.75C1.58579 12.75 1.25 12.4142 1.25 12L1.25 11.9426C1.24999 9.63423 1.24998 7.82519 1.43975 6.41371C1.63399 4.96897 2.03933 3.82895 2.93414 2.93414C3.82895 2.03933 4.96897 1.63399 6.41371 1.43975C7.82519 1.24998 9.63423 1.24999 11.9426 1.25ZM22 11.25C22.4142 11.25 22.75 11.5858 22.75 12V12.0574C22.75 14.3658 22.75 16.1748 22.5603 17.5863C22.366 19.031 21.9607 20.1711 21.0659 21.0659C20.1711 21.9607 19.031 22.366 17.5863 22.5603C16.1748 22.75 14.3658 22.75 12.0574 22.75H11.9426C9.63423 22.75 7.82519 22.75 6.41371 22.5603C4.96897 22.366 3.82895 21.9607 2.93414 21.0659C1.93593 20.0677 1.54679 18.7643 1.38047 17.0734C1.33992 16.6612 1.64122 16.2941 2.05345 16.2536C2.46567 16.2131 2.83272 16.5144 2.87326 16.9266C3.02665 18.486 3.36005 19.3705 3.9948 20.0052C4.56445 20.5749 5.33517 20.9018 6.61358 21.0736C7.91356 21.2484 9.62177 21.25 12 21.25C14.3782 21.25 16.0864 21.2484 17.3864 21.0736C18.6648 20.9018 19.4355 20.5749 20.0052 20.0052C20.5749 19.4355 20.9018 18.6648 21.0736 17.3864C21.2484 16.0864 21.25 14.3782 21.25 12C21.25 11.5858 21.5858 11.25 22 11.25Z" clip-rule="evenodd"></path></svg>